<svg width="640" height="206" viewBox="0 0 640 206" fill="none" xmlns="http://www.w3.org/2000/svg">
<path d="M563.81 205.768C521.823 205.768 487.621 181.576 487.621 132.359C487.621 83.1415 521.823 60.0622 563.81 60.0622C605.798 60.0622 640 83.1415 640 132.359C640 181.576 605.798 205.768 563.81 205.768ZM563.81 169.342C576.879 169.342 584.665 157.663 584.665 132.359C584.665 107.055 576.879 96.4887 563.81 96.4887C550.741 96.4887 542.955 107.055 542.955 132.359C542.955 157.663 550.741 169.342 563.81 169.342Z" fill="white"/>
<path d="M478.16 0.835045V202.432H421.991V0.835045H478.16Z" fill="white"/>
<path d="M352.709 53.1441V0H409.99V2.14408C409.99 30.3106 387.157 53.1441 358.99 53.1441H352.709ZM353.265 202.431V63.3987H409.434V202.431H353.265Z" fill="white"/>
<path d="M240.434 205.768C211.515 205.768 192.051 189.084 192.051 164.336C192.051 151.823 195.666 142.647 203.451 135.974C211.793 128.744 225.14 124.017 245.439 120.958L283.256 115.397V109.28C283.256 98.7132 277.973 93.708 268.519 93.708C257.674 93.708 252.113 99.2693 251.279 110.392H196.5C199.002 78.1364 225.697 60.0622 268.797 60.0622C317.18 60.0622 339.425 77.8583 339.425 117.622V168.229C339.425 181.854 340.815 195.202 342.762 202.431H288.817C287.427 196.036 286.871 189.64 286.871 182.133C279.641 196.592 261.567 205.768 240.434 205.768ZM263.513 172.4C276.304 172.4 285.202 164.614 285.202 153.492V140.145L269.075 143.204C255.171 145.984 248.498 151.267 248.498 159.609C248.498 167.117 254.615 172.4 263.513 172.4Z" fill="white"/>
<path d="M0 202.431V5.00558H86.2C146.818 5.00558 186.025 44.2127 186.025 102.05C186.025 162.39 146.818 202.431 85.6439 202.431H0ZM58.1155 161H82.8632C111.504 161 126.241 133.749 126.241 102.05C126.241 70.9069 112.894 46.4372 83.4194 46.4372H58.1155V161Z" fill="white"/>
</svg>
